<svg t="1689577583821" class="icon" viewBox="0 0 1024 1024" version="1.1" xmlns="http://www.w3.org/2000/svg" p-id="25970" width="200" height="200"><path d="M786.1 930H237.9c-45.2 0-81.9-34.8-81.9-77.7V171.7c0-42.8 36.8-77.7 81.9-77.7h448L868 264.3v588c0 42.9-36.7 77.7-81.9 77.7zM237.9 144c-17.3 0-31.9 12.7-31.9 27.7v680.6c0 15 14.6 27.7 31.9 27.7h548.2c17.3 0 31.9-12.7 31.9-27.7V286L666.2 144H237.9z" p-id="25971" fill="#8a8a8a"></path><path d="M289.2 709.8H735v50H289.2zM289.2 537.9H735v50H289.2zM289.2 365.9H531v50H289.2zM856 289.2c0 6-4.4 11-9.7 11H690.6c-26.8 0-48.6-24.7-48.6-55V116c0-6 4.4-11 9.7-11" p-id="25972" fill="#8a8a8a"></path></svg>